<?xml version="1.0" encoding="utf-8"?>
<!-- Generator: Adobe Illustrator 27.9.0, SVG Export Plug-In . SVG Version: 6.00 Build 0)  -->
<svg version="1.1" id="Слой_1" xmlns="http://www.w3.org/2000/svg" xmlns:xlink="http://www.w3.org/1999/xlink" x="0px" y="0px"
	 viewBox="0 0 187.5 187.5" style="enable-background:new 0 0 187.5 187.5;" xml:space="preserve">
<style type="text/css">
	.st0{fill:#00B887;}
	.st1{fill:#FFCE00;}
	.st2{fill:#FFFFFF;}
	.st3{fill:#01B6D3;}
</style>
<path class="st0" d="M69.4,60.3c5.4-2.2,11.6,3.3,10.2,8.9s-9.2,8.2-13.2,3.9S64.2,61.9,69.4,60.3z"/>
<path class="st1" d="M121.7,93.1c5.2-2.2,11.4,2.7,10.4,8.2s-7.9,8.8-12.3,5.4S116,94.8,121.7,93.1z"/>
<path class="st2" d="M78.9,1.2C130.1-7,178.2,27.8,186.4,79c5.6,34.7-8.7,69.6-37.1,90.4c-12.9,9.6-28.1,15.6-44,17.4
	c-47.5,5.9-91.8-24.9-102.8-71.5c-4.9-21.1-2.5-43.2,7-62.7C22.5,25.6,49.2,5.7,78.9,1.2z M80.9,9.2C34.2,16.3,2.1,60,9.2,106.7
	s50.8,78.8,97.5,71.7s78.8-50.8,71.7-97.5c-1.5-10.2-4.9-19.9-9.9-28.9c-7.8-13.8-19.3-25.2-33.1-33C118.8,9.8,99.7,6.3,80.9,9.2z"
	/>
<path class="st0" d="M102.5,74.4c-5.6-3.2-11.7-5.1-17.9-6.9h-1.1c0,1.6-0.1,3.2-0.5,4.7c14.1,3,25.5,9.5,34.7,20.6l4.1-2.8
	C115.8,83.2,110.5,78.6,102.5,74.4z"/>
<path class="st2" d="M126.8,46.8c-25.7-18-61.2-11.7-79.1,14S36,122,61.7,140c12.5,9.1,28.2,12.6,43.4,9.7
	c30.7-5.6,51.1-34.9,45.7-65.6C148.2,68.9,139.5,55.4,126.8,46.8z M140.4,77.3c-2.9-2.9-6-5.7-9.2-8.2c-0.7-3.5-1.7-6.8-2.7-10.1
	C133.7,64.2,137.8,70.4,140.4,77.3L140.4,77.3z M84.6,65.3c12.3-3.3,25.9-2.5,37.3,3.4c1.7,1.1,4,1.8,5.2,3.5
	c1,5.6,0.3,11.3-0.7,16.8l4.3,1.4c1.1-5,1.5-10,1.2-15.1c4.2,4.2,8.5,8.6,11.1,14.1c1,10.8-1.6,21.6-7.6,30.7
	c-0.7-3.7-1.7-7.5-2.8-11.1l-4.1,2.3c1.5,4.6,2.6,9.2,3.2,14c-2.7,2.8-5.5,5.4-8.5,7.8c-6,0-12-1.1-17.6-3.2c-0.7,1.3-1.5,2.6-2.2,4
	c4.2,1.5,8.6,2.6,13,3.3c-16.4,8.4-37.4,6.1-51.7-5.5c6.8,1.5,13.8,1.8,20.7,1c-0.7-1.5-1.2-2.9-1.8-4.3c-8.9,1.1-17.9-0.2-26-3.9
	c-3.3-3.3-5.5-7.7-7.5-12c-1.4-2.7-0.7-5.8-0.2-8.7c2.2-10.7,7.7-20.4,15.8-27.7c-1-1.1-1.9-2.3-2.9-3.5
	c-7.6,6.9-13.2,15.8-16.1,25.6c-1-8.6,0.5-17.2,4.4-24.9c3.5-1.6,7.3-2.1,11-2.8c-0.2-1.5-0.3-3.1-0.4-4.6L54,67.6
	c6.6-9.9,16.5-17.2,27.9-20.5c-2.4,3-4.7,6.1-6.7,9.4l4.2,1.8c2.8-4.7,6.2-8.9,10.3-12.5c9.4-1.2,18.8,0.6,27.2,4.9
	c5.8,2.6,6.8,9.8,9.2,15.1c-13.3-7.4-29.1-9-43.6-4.5c0.7,1.2,1,2.6,1,4"/>
<path class="st3" d="M66.2,77.3l4.7,0.7c-1.2,15.3,4.3,30.4,15.1,41.4c-1,1.2-2,2.6-2.9,3.9C71,111.2,64.8,94.4,66.2,77.3z"/>
<path class="st1" d="M103.9,122.2c5.4-3.5,10.1-7.9,14-12.9l4,2.8c-4.6,5.8-10,10.8-16.2,14.8L103.9,122.2z"/>
<path class="st3" d="M90.5,119.6c5.8-3.3,13.2,3.5,10.6,9.6c-2.6,6.1-9.6,6.9-13.2,2.5S85.9,121.5,90.5,119.6z"/>
<path class="st2" d="M52.6,22.9l7.7-3.5c0.9-0.5,2-0.8,3-0.9c0.9-0.2,1.8-0.1,2.7,0.1c0.9,0.3,1.6,0.7,2.3,1.3
	c0.8,0.7,1.4,1.6,1.8,2.6c1.1,2.3,1.3,4.2,0.6,5.8s-2.2,2.8-4.4,3.8l-2.8,1.3l2.9,6.4l-5,2.3L52.6,22.9z M61.7,29.4l0.8-0.4l1.3-0.6
	c0.4-0.2,0.7-0.5,1-0.8c0.3-0.2,0.5-0.6,0.5-1c0.1-0.6,0-1.1-0.3-1.6c-0.2-0.5-0.5-0.9-0.9-1.2c-0.3-0.3-0.7-0.4-1.1-0.4
	c-0.4,0-0.9,0.1-1.3,0.3c-0.5,0.1-1,0.3-1.4,0.6l-0.8,0.3L61.7,29.4z"/>
<path class="st2" d="M91.5,29.7L90,33.4l-5.8-0.2l8.7-20.9l6,0.2l7.3,21.3h-5.8L99.1,30L91.5,29.7z M95.7,18.9L95.7,18.9l-2.5,6.7
	h4.5L95.7,18.9z"/>
<path class="st2" d="M125.2,18.2l5.9,3.3v6.3l5.5-3.1l5.8,3.3l-10.6,5.2l1.2,13.7l-5.7-3.3l-0.5-8.2l-7.6,3.6l-5.8-3.2l12.8-5.8
	L125.2,18.2z"/>
<path class="st2" d="M142.7,58.7l-3.4-4.3l16.6-13l3.4,4.3L142.7,58.7z"/>
<path class="st2" d="M169.6,63l1.4,5.3l-9.9,13l0,0l12.5-3.3l1.4,5.3l-20.5,5.5l-1.3-5.4l9.9-12.9l0,0l-12.5,3.3l-1.4-5.3L169.6,63z
	"/>
<path class="st2" d="M152.1,108.4l1.1-5.4l16.2,3.2l0.8-4.4l4.6,0.9L172,117l-4.6-1l0.9-4.4L152.1,108.4z"/>
<path class="st2" d="M137.4,136.4l3.9-5.6l9.6,0.4h0.1l-6.7-4.7l3.1-4.5l17.4,12.1l-4.7,6.8c-0.6,0.8-1.3,1.5-2,2.1s-1.5,1-2.3,1.3
	c-0.8,0.2-1.7,0.2-2.5,0.1c-1-0.2-1.9-0.7-2.8-1.2c-0.6-0.4-1.1-0.9-1.5-1.5c-0.4-0.5-0.8-1.1-1-1.7c-0.4-1.3-0.3-2.7,0.3-4
	L137.4,136.4z M153.9,133.2l-0.3,0.4c-0.3,0.4-0.5,0.8-0.7,1.2c-0.3,0.3-0.4,0.8-0.4,1.2c-0.1,0.4-0.1,0.8,0.1,1.2
	c0.1,0.4,0.5,0.7,0.9,1.1c0.4,0.3,0.9,0.5,1.4,0.5c0.4,0,0.8-0.1,1.1-0.3c0.4-0.2,0.7-0.5,1-0.8l0.9-1l0.3-0.5L153.9,133.2z"/>
<path class="st2" d="M127.4,148.3l-0.5-3.9l5.1-2.8l3,22.5l-5.2,2.8l-17.1-14.7l5.1-2.8l3,2.6L127.4,148.3z M129.3,159.8
	L129.3,159.8l-1.2-6.9l-4,2.1L129.3,159.8z"/>
<path class="st2" d="M103.8,175.2H96c-1.4,0.1-2.9-0.2-4.2-0.7c-1.3-0.5-2.4-1.2-3.4-2.2c-1-0.9-1.8-2-2.4-3.3s-0.9-2.7-0.9-4.1
	c-0.1-1.4,0.2-2.9,0.7-4.2c0.6-1.3,1.3-2.4,2.3-3.4s2.1-1.7,3.4-2.3c1.3-0.5,2.7-0.8,4.1-0.9h7.8L103.8,175.2z M98,158.8h-1.3
	c-0.8,0-1.6,0.1-2.3,0.4c-0.7,0.2-1.4,0.6-1.9,1.1s-1,1.1-1.3,1.8c-0.3,0.9-0.4,1.8-0.4,2.7s0.2,1.7,0.5,2.5
	c0.3,0.7,0.7,1.3,1.3,1.8c0.5,0.5,1.2,0.9,1.9,1.1c0.8,0.3,1.6,0.4,2.4,0.4h1.3L98,158.8z"/>
<path class="st2" d="M63.2,164.5l1.4-3.2l-5.7-2.5l1.9-4.2l5.6,2.5l1.5-3.4l-6-2.6l1.9-4.3l11,4.8L66.4,171l-11-4.8l1.8-4.2
	L63.2,164.5z"/>
<path class="st2" d="M21.9,83.3c0.9,2.7,1.8,5.4,2.6,8.1h8.6l-6.9,5c0.8,2.7,1.7,5.4,2.6,8.1l-6.9-5l-6.9,5l2.7-8.1l-6.9-5h8.5
	C20.2,88.7,21,86,21.9,83.3z"/>
<path class="st2" d="M26.4,111.1c0.9,2.7,1.8,5.4,2.6,8.1h8.6l-6.9,5c0.8,2.7,1.7,5.4,2.6,8.1l-6.9-5l-6.9,5l2.7-8.1l-6.9-5h8.5
	C24.7,116.5,25.5,113.8,26.4,111.1z"/>
<path class="st2" d="M44.3,134.3c0.9,2.7,1.8,5.4,2.6,8.1h8.5l-6.9,4.9l2.7,8.1l-6.9-5l-6.9,5l2.7-8.1l-6.9-4.9h8.5
	C42.6,139.7,43.4,137,44.3,134.3z"/>
<path class="st2" d="M28.8,54.1c0.9,2.7,1.8,5.4,2.6,8.1H40l-6.9,5c0.8,2.7,1.7,5.4,2.6,8.1l-6.9-5l-6.9,5l2.7-8.1l-6.9-5h8.5
	C27.1,59.5,28,56.8,28.8,54.1z"/>
<path class="st2" d="M42.2,30.9c0.8,2.7,1.7,5.4,2.6,8.1h8.5l-6.9,5c0.9,2.7,1.7,5.4,2.6,8.1L42.2,47l-6.9,5.1
	c0.9-2.7,1.7-5.4,2.6-8.1L31,39h8.5L42.2,30.9z"/>
</svg>
